<svg id="Capa_1" enable-background="new 0 0 511.989 511.989" height="512" viewBox="0 0 511.989 511.989" width="512" xmlns="http://www.w3.org/2000/svg"><g><g><g><g fill="#e27f83"><path d="m307.207 442.217 2.524-.676c8.901-2.385 18.129 2.529 21.118 11.247l9.193 26.813c3.293 9.604-2.237 19.988-12.044 22.616l-6.271 1.68c-9.807 2.628-19.788-3.6-21.739-13.564l-5.445-27.818c-1.772-9.043 3.763-17.913 12.664-20.298z"/><path d="m382.75 399.384 1.848-1.848c6.516-6.516 16.965-6.874 23.912-.819l21.368 18.625c7.654 6.671 8.057 18.429.877 25.608l-4.591 4.591c-7.179 7.179-18.937 6.776-25.608-.877l-18.625-21.368c-6.055-6.947-5.697-17.396.819-23.912z"/><path d="m426.755 324.517.676-2.524c2.385-8.901 11.255-14.436 20.299-12.665l27.818 5.445c9.964 1.95 16.192 11.932 13.564 21.739l-1.68 6.271c-2.628 9.807-13.012 15.337-22.616 12.044l-26.813-9.193c-8.719-2.987-13.633-12.216-11.248-21.117z"/></g></g><g><path d="m349.062 153.387h-9.35c19.901 0 36.085-15.939 36.462-35.759.397-20.441-16.734-37.185-37.185-37.185h-13.301c10.073 0 19.188-4.084 25.788-10.684s10.684-15.715 10.684-25.788c0-3.33-.448-6.549-1.283-9.604-4.207-15.491-18.374-26.867-35.189-26.867h-210.276l-55.222 37.776c-5.581 3.819-11.672 6.752-18.068 8.728s-13.077 2.994-19.84 2.994v211.233h10.277c17.559 0 32.734 11.926 37.307 28.884.02.092.051.194.081.295 8.402 30.687 34.221 51.932 63.869 55.996l19.779 72.19c6.529 23.832 28.13 39.487 51.708 39.487 4.685 0 9.451-.621 14.198-1.915 28.579-7.832 45.394-37.338 37.572-65.916l-26.837-97.968h128.176c19.901 0 36.085-15.949 36.462-35.759.397-20.451-16.734-37.185-37.185-37.185h-8.627c10.073 0 19.188-4.084 25.788-10.684s10.684-15.725 10.684-25.788c-.001-20.144-16.327-36.481-36.472-36.481z" fill="#ffddce"/><g fill="#ffcbbe"><path d="m360.876 34.367c-4.206-15.491-18.373-26.867-35.188-26.867h-210.276l-55.222 37.776c-5.581 3.819-11.672 6.752-18.068 8.728s-13.077 2.994-19.84 2.994v32.276h29.112c24.856 0 48.695-9.875 66.269-27.453 17.575-17.578 41.413-27.453 66.269-27.453h176.944z"/><path d="m229.876 459.133c-12.894-6.63-23.079-18.445-27.214-33.539l-19.779-72.19c-29.648-4.064-55.466-25.309-63.869-55.996-.027-.098-.054-.199-.08-.303-9.087-35.799-41.397-60.816-78.331-60.816h-18.324v31.94h10.277c17.559 0 32.734 11.926 37.307 28.884.031.092.051.194.082.295 8.402 30.687 34.221 51.932 63.879 55.996l19.769 72.19c6.529 23.833 28.131 39.487 51.708 39.487 4.685 0 9.452-.621 14.198-1.915 3.665-1.008 7.128-2.363 10.377-4.033z"/></g></g></g><g><path d="m337.944 450.355c-4.251-12.398-17.497-19.451-30.154-16.059l-2.522.676c-12.659 3.392-20.603 16.123-18.085 28.984l5.445 27.817c1.327 6.781 5.45 12.768 11.312 16.426 4.002 2.497 8.621 3.79 13.274 3.789 2.163 0 4.335-.279 6.453-.847l6.271-1.68c6.674-1.789 12.364-6.312 15.612-12.411s3.826-13.346 1.585-19.882zm-5.632 39.645c-1.32 2.479-3.542 4.245-6.256 4.972l-6.271 1.681c-2.711.728-5.52.309-7.904-1.179-2.383-1.487-3.992-3.824-4.532-6.582l-5.445-27.817c-1.009-5.153 2.174-10.254 7.245-11.613h.001l2.523-.676c.859-.23 1.725-.34 2.579-.34 4.188 0 8.089 2.649 9.503 6.774l9.192 26.814c.911 2.657.685 5.486-.635 7.966z"/><path d="m434.805 409.688-21.368-18.625c-9.88-8.612-24.877-8.096-34.144 1.17l-1.848 1.848c-9.267 9.267-9.779 24.265-1.169 34.143l18.625 21.369c4.54 5.208 11.104 8.332 18.011 8.568.283.01.564.015.847.015 6.609 0 13.022-2.645 17.708-7.331l4.59-4.59c4.887-4.886 7.553-11.648 7.316-18.554s-3.359-13.472-8.568-18.013zm-9.355 25.958-4.591 4.591c-1.986 1.986-4.645 3.027-7.434 2.931-2.809-.096-5.371-1.315-7.217-3.433l-18.625-21.369c-3.45-3.958-3.244-9.967.469-13.68l1.847-1.847c3.715-3.714 9.725-3.918 13.682-.469l21.368 18.624c2.117 1.847 3.337 4.41 3.433 7.218.097 2.808-.944 5.448-2.932 7.434z"/><path d="m493.414 318.727c-3.658-5.863-9.646-9.986-16.427-11.314l-27.817-5.445c-12.857-2.519-25.592 5.426-28.983 18.083l-.677 2.523v.002c-3.392 12.658 3.662 25.903 16.059 30.154l26.814 9.193c2.626.9 5.366 1.346 8.102 1.346 4.072 0 8.132-.988 11.78-2.931 6.099-3.248 10.622-8.938 12.411-15.614l1.679-6.271c1.789-6.674.717-13.864-2.941-19.726zm-11.548 15.845-1.679 6.271c-.728 2.714-2.493 4.936-4.973 6.256s-5.312 1.546-7.967.635l-26.813-9.193c-4.967-1.703-7.794-7.01-6.436-12.082l.677-2.524c1.359-5.072 6.451-8.258 11.614-7.246l27.816 5.445c2.758.54 5.095 2.149 6.582 4.533 1.488 2.383 1.906 5.19 1.179 7.905z"/><path d="m259.071 404.63c-4.112-.036-7.541 3.264-7.593 7.406-.254 20.436-14.221 38.488-33.965 43.9-3.998 1.097-8.105 1.653-12.206 1.653-20.712 0-39.005-13.97-44.487-33.971l-19.77-72.19c-.793-2.897-3.238-5.041-6.214-5.449-27.659-3.797-50.29-23.639-57.656-50.55-.006-.023-.016-.058-.027-.094-.015-.061-.03-.121-.046-.182-5.474-20.269-23.793-34.424-44.551-34.424h-2.77v-196.605c4.935-.498 9.806-1.486 14.55-2.957 7.16-2.208 13.922-5.471 20.096-9.698l37.441-25.621c6.608-4.524 13.935-7.688 21.775-9.401 4.046-.885 6.609-4.882 5.725-8.929-.885-4.047-4.885-6.607-8.929-5.725-9.736 2.129-18.835 6.058-27.043 11.678l-37.441 25.62c-4.929 3.375-10.327 5.979-16.053 7.745-5.705 1.768-11.633 2.664-17.62 2.664-4.142 0-7.5 3.358-7.5 7.5v211.23c0 4.142 3.358 7.5 7.5 7.5h10.27c13.952 0 26.285 9.539 30.036 23.212.042.176.09.352.142.527 8.531 31.056 33.788 54.351 65.114 60.543l18.504 67.57c7.262 26.5 31.504 45.007 58.954 45.007 5.442 0 10.883-.736 16.173-2.187 26.157-7.17 44.66-31.095 44.997-58.18.051-4.14-3.265-7.54-7.406-7.592z"/><path d="m402.375 263.663c.223-11.691-4.243-22.806-12.575-31.298-3.599-3.668-7.795-6.669-12.352-8.904.933-.791 1.837-1.624 2.712-2.498 8.303-8.304 12.876-19.347 12.876-31.093 0-17.387-10.142-32.45-24.821-39.583 9.237-7.911 15.211-19.554 15.46-32.514.223-11.695-4.241-22.811-12.57-31.301-4.406-4.491-9.706-7.981-15.474-10.29.39-.363.774-.734 1.153-1.113 8.301-8.314 12.872-19.358 12.872-31.099 0-24.245-19.725-43.97-43.97-43.97h-173.73c-4.142 0-7.5 3.358-7.5 7.5s3.358 7.5 7.5 7.5h173.73c15.974 0 28.97 12.996 28.97 28.97 0 7.739-3.014 15.019-8.482 20.497-5.472 5.471-12.747 8.483-20.487 8.483-4.143 0-7.5 3.358-7.5 7.5s3.357 7.5 7.5 7.5h13.3c7.979 0 15.783 3.29 21.411 9.027 5.485 5.591 8.426 12.875 8.279 20.509-.3 15.662-13.296 28.404-28.971 28.404-4.143 0-7.5 3.358-7.5 7.5s3.357 7.5 7.5 7.5h9.35c15.979 0 28.98 13 28.98 28.98 0 7.74-3.013 15.016-8.482 20.486-5.472 5.471-12.751 8.483-20.498 8.483-4.143 0-7.5 3.358-7.5 7.5s3.357 7.5 7.5 7.5h8.631c7.974 0 15.775 3.292 21.406 9.03 5.488 5.593 8.43 12.876 8.284 20.506-.3 15.662-13.296 28.403-28.971 28.403l-146.301.005c-4.142 0-7.5 3.358-7.5 7.5s3.358 7.5 7.5 7.5h12.41l21.357 77.986c.912 3.332 3.934 5.521 7.229 5.521.656 0 1.322-.087 1.985-.268 3.995-1.094 6.347-5.22 5.253-9.215l-20.273-74.029h118.34c23.789.002 43.513-19.34 43.969-43.115z"/></g></g></svg>